<?xml version="1.0" encoding="utf-8"?>
<!-- Generator: Adobe Illustrator 26.4.1, SVG Export Plug-In . SVG Version: 6.00 Build 0)  -->
<svg version="1.1" id="图层_1" xmlns="http://www.w3.org/2000/svg" xmlns:xlink="http://www.w3.org/1999/xlink" x="0px" y="0px"
	 viewBox="0 0 937.2 285.6" style="enable-background:new 0 0 937.2 285.6;" xml:space="preserve">
<style type="text/css">
	.st0{display:none;}
	.st1{display:inline;fill:#45556B;}
	.st2{fill:#45556B;}
	.st3{fill:#2BABE3;}
</style>
<g id="图层_2_00000170997002215542158840000004428618234835019447_" class="st0">
	<rect x="-26" y="-21.1" class="st1" width="943" height="443"/>
</g>
<g id="图层_3">
	<g>
		<path class="st2" d="M766.3,92.4c1.6-2.1,3.1-4.1,4.7-6.1c5.5-7,11.6-13.3,19.8-17c3.9-1.8,8-2.8,12.4-3.1
			c4.6-0.4,9.2-0.2,13.3,1.6c3,1.3,5.9,1.3,8.9,1.3c3.2,0,6.4,0,9.6,0c0.9,0,1.4,0.2,1.8,1.1c2.4,5.7,4.9,11.4,7.4,17.2
			c3.2,7.3,6.3,14.5,9.5,21.8c2.4,5.6,4.9,11.1,7.3,16.6c3.2,7.4,6.3,14.8,9.5,22.1c2.4,5.6,4.9,11.1,7.3,16.7
			c1,2.2,2.2,4.3,2.8,6.9c1.4-1.4,1.7-3.3,2.3-5c3.2-8.6,6.2-17.2,9.3-25.8c4.1-11.4,8.1-22.8,12.4-34c4.2-10.7,8.2-21.5,12-32.3
			c0.2-0.4,0.4-0.8,0.6-1.2c1.5-4,1.5-4,5.7-4s8.4,0,12.5,0c1.8,0,1.8,0.1,1.1,1.7c-2.9,6.5-5.6,13.1-8.7,19.6
			c-2.3,4.8-4.4,9.7-6.5,14.6c-3.2,7.3-6.3,14.5-9.5,21.8c-2.1,4.9-4.1,9.8-6.5,14.6c-4.4,8.5-7.7,17.4-11.8,26.1
			c-2.5,5.4-5.1,10.9-7.3,16.4c-1.6,4.1-3,8.3-4.3,12.5c-2.5,7.7-4.9,15.5-8.1,23c-3,6.9-6.3,13.7-10,20.3
			c-3.4,5.8-7.1,11.5-11.2,16.8c-2.1,2.6-4.1,5.3-6.5,7.7c-2.5,2.6-4.9,5.4-7.7,7.7c-2,1.6-3.8,3.4-5.8,5c-0.7,0.6-1.2,0.6-2-0.1
			c-4.7-3.9-9.6-7.6-14.4-11.4c-0.3-0.2-0.5-0.5-0.8-0.7c-1-0.8-0.9-1.3,0.2-2c5-2.9,9.7-6.2,14.3-9.7c6.8-5.2,13-11,18.7-17.4
			c4.8-5.3,9-11,12.9-17.1c2-3.1,3.8-6.2,5.4-9.4c0.3-0.5,0.3-0.9,0.1-1.4c-2-4.3-3.9-8.7-5.8-13c-3.3-7.4-6.5-15-10-22.3
			c-2.2-4.7-4.3-9.3-6.5-14c-3.3-7.4-6.6-14.9-10-22.3c-2.6-5.9-5.3-11.8-8-17.7c-3.7-8.3-7.4-16.7-11.1-25
			c-0.3-0.7-0.8-1.2-1.6-1.3c-4.2-0.9-8.5-2-12.8-2.3c-4.9-0.4-9.7,0.3-14.5,1.7c-6.3,1.8-11.5,5.4-16.3,9.7
			c-0.4,0.3-0.8,0.6-1.2,0.9c-2,1.6-3,3.4-3,6.2c0.1,34.2,0.1,68.3,0.1,102.5c0,2.5,0.3,2.2-2.2,2.2c-8.2,0-16.4,0-24.6,0
			c-1.6,0-1.9-0.5-1.9-2c0-37.8,0.1-75.5,0-113.3c0-4.3-0.8-8.5-1.3-12.8c-0.3-2.8-0.5-5.5-0.8-8.3c-0.2-1.8-0.4-3.6-0.6-5.4
			c-0.2-1.2-0.1-2,1.5-2c8.5,0.1,17,0.1,25.4,0c1.2,0,1.6,0.2,1.7,1.6c0.3,3.9,0.9,7.7,1.3,11.6c0.3,2.7,0.5,5.4,0.7,8.1
			C765.7,91,765.7,91.7,766.3,92.4z"/>
		<path class="st3" d="M30.4,67.7c0.9,0.3,0.8-0.5,0.9-0.9c3.8-7.5,8.7-14.2,14.4-20.4C56.4,35,69.1,27,84,22.4
			c5.4-1.7,10.8-2.7,16.4-3.5c7.7-1.1,15.4-1.2,23.1-0.9c6.8,0.3,13.5,1.1,20.3,2.2c8.1,1.4,16,3.6,23.8,6.2c2.7,0.9,5.3,2,7.9,3.1
			c0.6,0.2,1,0.7,1,1.4c0,8-0.1,15.9-0.1,23.9c0,0-0.1,0.1-0.1,0.2c-2.3-1.1-3.7-3.2-5.7-4.8c-4.7-3.8-9.7-7.2-15-10.3
			c-7.1-4.2-14.7-7.3-22.7-9.2c-3.3-0.8-6.8-1.2-10.2-1.6c-3-0.3-5.9-0.3-8.9-0.2c-7,0.2-13.8,1.6-20.3,4.4
			c-7.2,3-13.3,7.7-18.5,13.5c-3.8,4.2-6.9,8.9-9.6,13.8c-5.1,9.2-8.1,19.2-10.1,29.5c-1,5.3-1.5,10.6-1.9,16
			c-0.4,5.9-0.3,11.8-0.2,17.6c0.1,5.2,0.8,10.4,1.6,15.5c1.1,7,2.7,13.9,5.1,20.6c2.9,8.2,7.1,15.6,12.5,22.4
			c4.2,5.4,9,10.1,14.8,13.8c5.4,3.5,11.3,5.8,17.6,7c4.4,0.8,8.9,1.2,13.4,1c11.4-0.4,22.5-2.6,33.1-7c0.7-0.3,1.1-0.7,1-1.6
			c0-0.5,0-0.9,0-1.4c0-22.5,0-45,0-67.5c0-2.3,0-2.3,2.2-2.3c8.9,0,17.9,0,26.8,0c1.3,0,1.8,0.3,1.8,1.7c0,24.3,0,48.5,0,72.8
			c0,1.1-0.4,1.6-1.4,2c-6.7,3.5-13.8,5.8-21.1,7.7c-7.1,1.9-14.2,3.4-21.4,4.4c-5.4,0.8-10.8,1.3-16.3,1.5
			c-3.7,0.2-7.4,0.4-11.1,0.2c-12.5-0.5-24.7-2.6-36.3-7.6c-8.2-3.5-15.6-8.1-22.3-14c-7.4-6.4-13.7-13.7-18.9-22.1
			c-1.1-1.7-2.2-3.4-3.1-5.3c-0.1-0.3-0.2-0.9-0.8-0.5c-1.3-3.2-2.7-6.3-3.9-9.5c-3.7-10.1-5.7-20.4-6.3-31.1
			c-0.2-3.9-0.4-7.8-0.2-11.7c0.5-14.7,3.1-28.9,9.3-42.3C29.7,69.7,29.6,68.6,30.4,67.7z"/>
		<path class="st2" d="M205.6,117.4c0-31.1,0-62.3,0-93.4c0-1.7,0.4-2.1,2.1-2.1c8.8,0.1,17.6,0.1,26.5,0c1.6,0,1.9,0.5,1.9,2
			c0,58.5,0,117,0,175.5c0,2.6,0.3,2.9,2.9,2.5c3.2-0.6,6.5-0.7,9.8-1c4.1-0.4,8.2-0.9,12.3-1.3c2.8-0.3,5.5-0.5,8.3-0.7
			c4.3-0.4,8.7-1,13-1.3c2.8-0.2,5.5-0.5,8.3-0.8c4.3-0.4,8.7-1,13-1.3c2.4-0.2,4.9-0.5,7.3-0.7c4-0.3,7.9-0.8,11.8-1.1
			c1.6-0.1,2,0.5,2,2c-0.1,5.2-0.1,10.4,0,15.6c0,1.1-0.2,1.5-1.4,1.5c-6.2-0.1-12.5,0.3-18.7-0.1c-7-0.4-14,0.1-20.9-0.3
			c-7.3-0.5-14.5,0.1-21.8-0.4c-6.9-0.4-13.8,0.2-20.7-0.4c-3.9-0.3-7.7,0.1-11.6,0.2c-5.2,0.1-10.4,0.4-15.5,0.7
			c-2.4,0.1-4.8,0.1-7.2,0.3c-0.9,0.1-1.4-0.2-1.3-1.2c0.1-0.5,0-1,0-1.5C205.6,179.1,205.6,148.3,205.6,117.4z"/>
		<path class="st2" d="M522.5,153.7c0-18.5,0-37.1,0-55.6c0-4.5-0.8-9-1.3-13.5c-0.3-2.6-0.5-5.2-0.7-7.8c-0.1-2-0.3-4.1-0.7-6.1
			c-0.2-1.1,0-1.8,1.4-1.7c8.7,0.1,17.4,0.1,26.1,0c1.1,0,1.4,0.3,1.5,1.4c0.3,3.9,0.9,7.9,1.3,11.8c0.3,2.8,0.5,5.6,0.7,8.5
			c0,0.6,0.1,1.3,0.5,1.5c0.4,0.1,0.8-0.5,1.2-1c3.4-4.7,7.1-9.3,11.3-13.4c6.2-6,13.5-10.2,22.1-11.4c5.6-0.8,11.3-0.5,16.7,1.6
			c0.9,0.3,1.1,0.7,1.1,1.6c0,7.5,0,15,0,22.5c0,1.1-0.2,1.3-1.4,0.9c-4.7-1.6-9.6-2.6-14.5-3.2c-5.8-0.7-11.4,0.1-16.9,1.8
			c-4.7,1.4-8.7,4-12.5,7c-1.9,1.5-3.7,3.2-5.5,4.8c-1.1,0.9-1.4,1.9-1.4,3.3c0,34.6,0,69.2,0,103.9c0,2.6,0.3,2.3-2.3,2.3
			c-8.4,0-16.7,0-25.1,0c-1.4,0-1.7-0.4-1.7-1.7C522.5,191.9,522.5,172.8,522.5,153.7z"/>
		<path class="st2" d="M30.4,67.7c0,1.3-0.4,2.4-1,3.6C26.6,77.5,24.5,84,23,90.7c-2.3,10.1-3,20.3-2.6,30.6
			c0.5,14.3,3.3,28.2,9.5,41.3c0.4,0.9,0.4,1.8,0.5,2.7c0,14.9,0,29.9,0,44.8c0,1.4-0.5,1.7-1.8,1.7c-9,0-18-0.1-27,0
			c-1.3,0-1.7-0.3-1.7-1.7C0,147.6,0,85.1,0,22.6c0-1.4,0.4-1.7,1.7-1.7c9,0.1,18,0.1,27,0c1.3,0,1.8,0.3,1.8,1.7
			C30.4,37.6,30.4,52.7,30.4,67.7z"/>
		<path class="st2" d="M327.6,140.7c0-23.2,0-46.3,0-69.5c0-1.6,0.3-2.2,2.1-2.2c8.3,0.1,16.6,0.1,24.9,0c1.3,0,1.7,0.3,1.7,1.7
			c0,46.8,0,93.6,0,140.4c0,1.4-0.5,1.7-1.8,1.7c-8.3-0.1-16.6-0.1-24.9,0c-1.6,0-2.1-0.3-2.1-2C327.6,187.4,327.6,164,327.6,140.7z
			"/>
		<path class="st2" d="M359.4,17.9c-0.3,10.5-7.3,17-17.4,17.2c-9.6,0.2-17-7.2-17.1-17.1c-0.1-9.8,7.4-17.3,16.9-17.2
			C351.9,0.9,359.1,7.5,359.4,17.9z"/>
		<path class="st2" d="M507.3,121.3c-0.7-9-2.9-17.5-6.8-25.5c-3.2-6.5-7.5-12.3-13-17.1c-6-5.2-12.8-8.7-20.4-10.7
			c-4.1-1.1-8.4-1.4-12.7-1.8c-4.4-0.5-8.7,0-12.9,0.6c-5.7,0.8-11.1,2.7-16,5.7s-9.4,6.5-13.2,10.9c-1.8,2.1-3.4,4.2-5.5,6.7
			c0-1.2,0-1.9-0.1-2.7c0-28.6,0-57.1,0-85.7c0-1.1,0-2-1.6-1.7c-4.2,0.7-8.5,1.3-12.7,2c-4.1,0.7-8.3,1.5-12.4,1.9
			c-2.1,0.2-2,1.2-2,2.7c0,65.6,0,131.3,0,196.9c0,4.7,0,4.7,4.6,5.8c9.4,2.3,18.7,4.1,28.3,5.2c5.4,0.6,10.9,1,16.3,1.2
			c7.1,0.3,14.3-0.2,21.4-1.3c7.5-1.2,14.7-3.4,21.4-6.8c7.3-3.7,13.6-8.6,19.1-14.8c6.2-6.9,10.6-14.8,13.9-23.4
			c3.4-9,4.5-18.3,4.8-27.8C508,134.9,507.8,128.1,507.3,121.3z M478.4,147.2c-0.3,7.5-1.4,15.1-3.8,22.3c-2.5,7.6-5.8,14.7-10.9,21
			c-5.5,6.7-12.2,11.3-20.6,13.3c-4.8,1.1-9.7,1.5-14.7,1c-5.2-0.5-10.2-1.4-15-3.1c-2-0.7-4-1.6-5.8-2.7c-0.9-0.5-0.7-1.2-0.7-1.9
			c0-8.6,0-17.2,0-25.7c-0.1-7.4-0.1-14.6-0.1-21.8c0-15.6,0-31.2,0-46.9c0-1.1,0.3-1.9,1.1-2.7c2.9-2.9,5.8-5.7,9.3-7.6
			c5.4-3,11-5.5,17.3-6.2c7.7-0.8,15,0.4,21.9,3.8c6.4,3.1,10.8,8.1,14.3,14.1c3.8,6.6,5.8,13.7,7,21.1
			C478.9,132.5,478.7,139.9,478.4,147.2z"/>
		<path class="st2" d="M713.7,211.2c-0.4-2.7-0.7-5.5-1-8.2c-0.3-2.5-0.5-5.1-0.8-7.6c-0.4-3.9-1.2-7.9-1.2-11.8
			c-0.2-22.3-0.1-44.5-0.1-66.8c0-3.3-0.3-6.5-0.7-9.8c-0.7-5.7-2.2-11.2-4.9-16.4c-3-5.7-7.2-10.3-12.2-14.2
			c-3.2-2.5-7-4.2-10.8-5.6c-9.3-3.5-19-4.3-28.7-4.8c-2.3-0.2-4.7,0.2-7,0.2c-4.8,0.1-9.5,0.6-14.2,1.5c-9.4,1.7-18.3,4.7-26.7,9.2
			c-0.8,0.4-1,0.9-1,1.7c0,6.1,0,12.1,0,18.2c0,0.5-0.1,0.9,0.3,1.4c3-2.5,5.8-5,9-7.2c5.7-3.9,11.4-7.6,17.8-10.3
			c6-2.5,12.3-4,18.8-4c3.7,0,7.3,0.6,10.9,1.6c5.9,1.7,10.5,5,14.2,9.6c4.5,5.5,6.4,12.1,6.8,19c0.4,6.5,0.1,13.1,0.1,19.7
			c0,0.6-0.1,1.1-0.8,1c-1.3-0.1-2.4,0.4-3.6,0.4c-5.2,0.1-10.5,0.7-15.7,1.3c-6.7,0.8-13.3,1.9-19.8,3.5
			c-9.6,2.4-18.8,5.7-27.2,11.1c-5.8,3.9-10.9,8.6-14.4,14.7c-5.5,9.5-6.4,19.6-4,30.1c2.3,10,8.2,17.3,17.3,22
			c10.1,5.2,20.8,6.1,31.8,4.3c12-2,22.1-8,30.9-16.1c2.1-1.9,4.1-4.1,6.5-6.6c0.7,6.8,1.4,13,2.1,19.3c0.1,1,0.4,1.2,1.3,1.2
			c8.6,0,17.2-0.1,25.8,0C713.8,212.8,713.8,212.2,713.7,211.2z M682.3,159.8c0,7.1,0,14.3,0,21.4c0,1-0.3,1.7-1,2.4
			c-3.9,3.9-7.8,7.7-12.6,10.6c-4.8,2.8-9.8,4.7-15.4,5.4c-4.8,0.6-9.4,0.1-13.8-1.7c-7-2.9-11.4-8.1-13.4-15.3
			c-2.4-8.6-1.2-16.8,3.8-24.2c3-4.5,7.2-7.9,11.9-10.6c9.3-5.2,19.4-7.9,29.8-9.7c3.1-0.5,6.1-0.9,9.2-1.3c1.2-0.2,1.5,0.3,1.5,1.5
			C682.3,145.5,682.3,152.6,682.3,159.8z"/>
	</g>
	<g>
		<path class="st2" d="M53.9,275.8v-29.3h13.4c2.7,0,4.7,0.3,6.1,0.8s2.5,1.5,3.4,2.8c0.8,1.3,1.3,2.8,1.3,4.4
			c0,2.1-0.7,3.8-2.1,5.3c-1.4,1.4-3.5,2.3-6.4,2.7c1.1,0.5,1.9,1,2.4,1.5c1.2,1,2.3,2.3,3.3,3.9l5.3,8h-5l-4-6.1
			c-1.2-1.8-2.1-3.1-2.9-4s-1.4-1.6-2-2s-1.2-0.6-1.8-0.8c-0.5-0.1-1.2-0.1-2.2-0.1h-4.6v13h-4.2C53.9,275.9,53.9,275.8,53.9,275.8z
			 M57.9,259.4h8.6c1.8,0,3.3-0.2,4.3-0.5c1-0.4,1.8-1,2.4-1.8s0.8-1.7,0.8-2.6c0-1.4-0.5-2.5-1.6-3.4c-1-0.9-2.7-1.3-4.9-1.3h-9.6
			C57.9,249.8,57.9,259.4,57.9,259.4z"/>
		<path class="st2" d="M98.9,269l3.8,0.5c-0.6,2.2-1.7,3.9-3.4,5.1c-1.6,1.2-3.7,1.8-6.3,1.8c-3.2,0-5.7-1-7.6-2.9s-2.8-4.6-2.8-8.1
			c0-3.6,0.9-6.4,2.8-8.3c1.9-2,4.4-3,7.4-3c2.9,0,5.3,1,7.2,2.9c1.9,1.9,2.8,4.7,2.8,8.2c0,0.2,0,0.5,0,1H86.5
			c0.1,2.3,0.8,4.1,2,5.4c1.2,1.2,2.7,1.9,4.6,1.9c1.4,0,2.5-0.3,3.5-1C97.6,271.6,98.3,270.5,98.9,269z M86.7,263.1h12.2
			c-0.2-1.8-0.6-3.1-1.4-4c-1.2-1.4-2.7-2.1-4.6-2.1c-1.7,0-3.1,0.6-4.3,1.7C87.5,259.8,86.8,261.3,86.7,263.1z"/>
		<path class="st2" d="M121.7,273.2c-1.4,1.1-2.7,1.9-4,2.4s-2.6,0.7-4.1,0.7c-2.4,0-4.3-0.6-5.5-1.7c-1.3-1.1-1.9-2.6-1.9-4.4
			c0-1,0.2-2,0.7-2.9s1.1-1.6,1.9-2.1s1.7-0.9,2.7-1.2c0.7-0.2,1.8-0.4,3.3-0.5c3-0.3,5.2-0.8,6.6-1.2c0-0.5,0-0.8,0-0.9
			c0-1.5-0.4-2.5-1.1-3.1c-0.9-0.8-2.4-1.2-4.2-1.2c-1.7,0-3,0.3-3.9,0.9c-0.8,0.6-1.4,1.6-1.8,3.2l-3.6-0.5
			c0.3-1.5,0.9-2.7,1.6-3.7c0.8-0.9,1.8-1.6,3.3-2.1c1.4-0.5,3.1-0.8,5-0.8s3.4,0.2,4.6,0.6c1.2,0.4,2,1,2.6,1.6
			c0.5,0.6,0.9,1.5,1.2,2.5c0.1,0.6,0.2,1.7,0.2,3.3v4.8c0,3.3,0.1,5.5,0.2,6.4c0.2,0.9,0.5,1.7,0.9,2.6h-3.9
			C122,275.1,121.8,274.2,121.7,273.2z M121.4,265.1c-1.3,0.5-3.4,1-6.1,1.4c-1.5,0.2-2.6,0.5-3.2,0.7c-0.6,0.3-1.1,0.7-1.5,1.2
			c-0.3,0.5-0.5,1.1-0.5,1.7c0,1,0.4,1.8,1.1,2.4s1.8,1,3.3,1c1.4,0,2.7-0.3,3.8-0.9s1.9-1.4,2.5-2.5c0.4-0.8,0.6-2,0.6-3.6
			C121.4,266.5,121.4,265.1,121.4,265.1z"/>
		<path class="st2" d="M145.1,275.8v-2.7c-1.4,2.1-3.4,3.2-6.1,3.2c-1.7,0-3.4-0.5-4.8-1.4c-1.5-0.9-2.6-2.2-3.4-3.9
			c-0.8-1.7-1.2-3.6-1.2-5.8c0-2.1,0.4-4,1.1-5.8s1.8-3.1,3.3-4c1.5-0.9,3.1-1.4,4.9-1.4c1.3,0,2.5,0.3,3.5,0.8s1.9,1.2,2.5,2.1
			v-10.5h3.7v29.3L145.1,275.8L145.1,275.8z M133.3,265.2c0,2.7,0.6,4.8,1.8,6.1c1.2,1.3,2.6,2,4.2,2c1.6,0,3-0.6,4.1-1.9
			s1.7-3.3,1.7-5.9c0-2.9-0.6-5-1.7-6.4s-2.6-2-4.3-2c-1.6,0-3,0.7-4.1,2C133.9,260.3,133.3,262.4,133.3,265.2z"/>
		<path class="st2" d="M155.3,275.8v-4.1h4.2v4.1c0,1.5-0.3,2.7-0.8,3.7c-0.6,0.9-1.4,1.6-2.6,2.2l-1-1.5c0.8-0.3,1.4-0.8,1.7-1.5
			c0.4-0.6,0.6-1.6,0.6-2.8h-2.1L155.3,275.8L155.3,275.8z"/>
		<path class="st2" d="M192.8,269l3.8,0.5c-0.6,2.2-1.7,3.9-3.4,5.1c-1.6,1.2-3.7,1.8-6.3,1.8c-3.2,0-5.7-1-7.6-2.9
			c-1.9-1.9-2.8-4.6-2.8-8.1c0-3.6,0.9-6.4,2.8-8.3c1.9-2,4.4-3,7.4-3c2.9,0,5.3,1,7.2,2.9c1.9,1.9,2.8,4.7,2.8,8.2c0,0.2,0,0.5,0,1
			h-16.3c0.1,2.3,0.8,4.1,2,5.4c1.2,1.2,2.7,1.9,4.6,1.9c1.4,0,2.5-0.3,3.5-1C191.5,271.6,192.2,270.5,192.8,269z M180.6,263.1h12.2
			c-0.2-1.8-0.6-3.1-1.4-4c-1.2-1.4-2.7-2.1-4.6-2.1c-1.7,0-3.1,0.6-4.3,1.7C181.4,259.8,180.8,261.3,180.6,263.1z"/>
		<path class="st2" d="M198.8,275.8l8-11.1l-7.4-10.2h4.6l3.4,5c0.6,0.9,1.1,1.7,1.5,2.4c0.6-0.9,1.2-1.7,1.7-2.3l3.7-5h4.4l-7.6,10
			l8.1,11.3h-4.6l-4.5-6.6l-1.2-1.8l-5.8,8.4h-4.3L198.8,275.8L198.8,275.8z"/>
		<path class="st2" d="M222.4,284v-29.4h3.4v2.8c0.8-1.1,1.7-1.9,2.7-2.4s2.2-0.8,3.6-0.8c1.9,0,3.5,0.5,4.9,1.4
			c1.4,0.9,2.5,2.3,3.2,4c0.7,1.7,1.1,3.6,1.1,5.6c0,2.2-0.4,4.1-1.2,5.9c-0.8,1.7-2,3.1-3.5,4s-3.1,1.4-4.8,1.4
			c-1.2,0-2.3-0.3-3.3-0.8s-1.8-1.1-2.4-1.9V284H222.4z M225.8,265.3c0,2.7,0.6,4.8,1.7,6.1c1.1,1.3,2.5,2,4.1,2s3.1-0.7,4.2-2
			c1.2-1.4,1.8-3.5,1.8-6.3c0-2.7-0.6-4.7-1.7-6.1c-1.1-1.3-2.5-2-4.1-2s-3,0.7-4.2,2.2C226.4,260.5,225.8,262.6,225.8,265.3z"/>
		<path class="st2" d="M245.8,275.8v-29.3h3.7v29.3H245.8z"/>
		<path class="st2" d="M253.9,265.2c0-3.9,1.1-6.9,3.4-8.7c1.9-1.6,4.2-2.4,6.9-2.4c3,0,5.5,1,7.4,2.9c1.9,1.9,2.9,4.6,2.9,7.9
			c0,2.7-0.4,4.9-1.3,6.5c-0.8,1.6-2.1,2.8-3.7,3.7c-1.6,0.9-3.4,1.3-5.3,1.3c-3.1,0-5.5-1-7.4-2.9
			C254.9,271.5,253.9,268.8,253.9,265.2z M257.7,265.2c0,2.7,0.6,4.8,1.8,6.1c1.2,1.4,2.8,2,4.6,2c1.8,0,3.4-0.7,4.6-2
			s1.8-3.4,1.8-6.2c0-2.6-0.6-4.6-1.8-6c-1.2-1.4-2.8-2-4.6-2c-1.9,0-3.4,0.7-4.6,2S257.7,262.4,257.7,265.2z"/>
		<path class="st2" d="M278.7,275.8v-21.3h3.3v3.2c0.9-1.5,1.6-2.5,2.4-3s1.5-0.7,2.4-0.7c1.3,0,2.5,0.4,3.8,1.2l-1.3,3.3
			c-0.9-0.5-1.8-0.8-2.7-0.8c-0.8,0-1.5,0.2-2.2,0.7s-1.1,1.1-1.4,2c-0.4,1.3-0.6,2.7-0.6,4.2v11.1L278.7,275.8L278.7,275.8z"/>
		<path class="st2" d="M307.8,269l3.8,0.5c-0.6,2.2-1.7,3.9-3.4,5.1c-1.6,1.2-3.7,1.8-6.3,1.8c-3.2,0-5.7-1-7.6-2.9
			s-2.8-4.6-2.8-8.1c0-3.6,0.9-6.4,2.8-8.3c1.9-2,4.4-3,7.4-3c2.9,0,5.3,1,7.2,2.9c1.9,1.9,2.8,4.7,2.8,8.2c0,0.2,0,0.5,0,1h-16.3
			c0.1,2.3,0.8,4.1,2,5.4c1.2,1.2,2.7,1.9,4.6,1.9c1.4,0,2.5-0.3,3.5-1C306.5,271.6,307.3,270.5,307.8,269z M295.6,263.1h12.2
			c-0.2-1.8-0.6-3.1-1.4-4c-1.2-1.4-2.7-2.1-4.6-2.1c-1.7,0-3.1,0.6-4.3,1.7C296.4,259.8,295.8,261.3,295.6,263.1z"/>
		<path class="st2" d="M317.3,275.8v-4.1h4.2v4.1c0,1.5-0.3,2.7-0.8,3.7c-0.6,0.9-1.4,1.6-2.6,2.2l-1-1.5c0.8-0.3,1.4-0.8,1.7-1.5
			c0.4-0.6,0.6-1.6,0.6-2.8h-2.1L317.3,275.8L317.3,275.8z"/>
		<path class="st2" d="M354,275.8v-2.7c-1.4,2.1-3.4,3.2-6.1,3.2c-1.7,0-3.4-0.5-4.8-1.4c-1.5-0.9-2.6-2.2-3.4-3.9
			c-0.8-1.7-1.2-3.6-1.2-5.8c0-2.1,0.4-4,1.1-5.8s1.8-3.1,3.3-4c1.5-0.9,3.1-1.4,4.9-1.4c1.3,0,2.5,0.3,3.5,0.8s1.9,1.2,2.5,2.1
			v-10.5h3.7v29.3L354,275.8L354,275.8z M342.3,265.2c0,2.7,0.6,4.8,1.8,6.1c1.2,1.3,2.6,2,4.2,2s3-0.6,4.1-1.9s1.7-3.3,1.7-5.9
			c0-2.9-0.6-5-1.7-6.4s-2.6-2-4.3-2c-1.6,0-3,0.7-4.1,2C342.8,260.3,342.3,262.4,342.3,265.2z"/>
		<path class="st2" d="M363.3,250.6v-4.1h3.7v4.1H363.3z M363.3,275.8v-21.3h3.7v21.3H363.3z"/>
		<path class="st2" d="M371.2,269.5l3.7-0.6c0.2,1.4,0.8,2.5,1.7,3.3c0.9,0.8,2.3,1.1,3.9,1.1c1.7,0,3-0.3,3.8-1s1.2-1.5,1.2-2.4
			c0-0.8-0.4-1.5-1.1-1.9c-0.5-0.3-1.8-0.7-3.8-1.2c-2.7-0.7-4.6-1.2-5.7-1.7s-1.8-1.2-2.4-2c-0.5-0.9-0.8-1.8-0.8-2.9
			c0-0.9,0.2-1.8,0.7-2.6c0.4-0.8,1.1-1.5,1.8-2c0.6-0.4,1.4-0.8,2.4-1.1s2.1-0.4,3.2-0.4c1.7,0,3.2,0.2,4.5,0.7s2.3,1.1,2.9,2
			c0.6,0.8,1,1.9,1.3,3.3l-3.6,0.5c-0.2-1.1-0.6-1.9-1.4-2.6c-0.8-0.6-1.9-0.9-3.4-0.9c-1.7,0-2.9,0.3-3.6,0.8s-1.1,1.2-1.1,1.9
			c0,0.5,0.2,0.9,0.5,1.3s0.8,0.7,1.4,1c0.4,0.1,1.5,0.4,3.3,0.9c2.6,0.7,4.5,1.2,5.5,1.7s1.9,1.1,2.4,1.9c0.6,0.8,0.9,1.9,0.9,3.1
			s-0.4,2.3-1.1,3.4s-1.8,1.9-3.1,2.5c-1.4,0.6-2.9,0.9-4.6,0.9c-2.8,0-5-0.6-6.5-1.7C372.5,273.4,371.6,271.7,371.2,269.5z"/>
		<path class="st2" d="M408.1,268l3.6,0.5c-0.4,2.4-1.4,4.4-3.1,5.7c-1.6,1.4-3.7,2.1-6.1,2.1c-3,0-5.4-1-7.2-2.9
			c-1.8-1.9-2.7-4.6-2.7-8.2c0-2.3,0.4-4.3,1.2-6c0.8-1.7,2-3,3.6-3.9c1.6-0.9,3.3-1.3,5.2-1.3c2.4,0,4.3,0.6,5.8,1.8
			c1.5,1.2,2.5,2.8,2.9,5l-3.6,0.5c-0.3-1.4-1-2.5-1.8-3.2c-0.9-0.7-1.9-1.1-3.2-1.1c-1.9,0-3.4,0.7-4.6,2s-1.8,3.4-1.8,6.2
			c0,2.9,0.6,4.9,1.7,6.2c1.1,1.3,2.6,1.9,4.4,1.9c1.5,0,2.7-0.4,3.6-1.3C407.2,271.2,407.8,269.8,408.1,268z"/>
		<path class="st2" d="M413.5,265.2c0-3.9,1.1-6.9,3.4-8.7c1.9-1.6,4.2-2.4,6.9-2.4c3,0,5.5,1,7.4,2.9c1.9,1.9,2.9,4.6,2.9,7.9
			c0,2.7-0.4,4.9-1.3,6.5c-0.8,1.6-2.1,2.8-3.7,3.7c-1.6,0.9-3.4,1.3-5.3,1.3c-3.1,0-5.5-1-7.4-2.9
			C414.5,271.5,413.5,268.8,413.5,265.2z M417.3,265.2c0,2.7,0.6,4.8,1.8,6.1c1.2,1.4,2.8,2,4.6,2c1.8,0,3.4-0.7,4.6-2
			s1.8-3.4,1.8-6.2c0-2.6-0.6-4.6-1.8-6c-1.2-1.4-2.8-2-4.6-2c-1.9,0-3.4,0.7-4.6,2C417.9,260.4,417.3,262.4,417.3,265.2z"/>
		<path class="st2" d="M444.5,275.8l-8.3-21.3h3.9l4.7,12.7c0.5,1.4,1,2.8,1.4,4.3c0.3-1.1,0.8-2.5,1.4-4l4.9-13h3.8l-8.3,21.3
			L444.5,275.8L444.5,275.8z"/>
		<path class="st2" d="M474.5,269l3.8,0.5c-0.6,2.2-1.7,3.9-3.4,5.1c-1.6,1.2-3.7,1.8-6.3,1.8c-3.2,0-5.7-1-7.6-2.9
			s-2.8-4.6-2.8-8.1c0-3.6,0.9-6.4,2.8-8.3c1.9-2,4.4-3,7.4-3c2.9,0,5.3,1,7.2,2.9c1.9,1.9,2.8,4.7,2.8,8.2c0,0.2,0,0.5,0,1h-16.3
			c0.1,2.3,0.8,4.1,2,5.4c1.2,1.2,2.8,1.9,4.6,1.9c1.4,0,2.5-0.3,3.5-1C473.2,271.6,473.9,270.5,474.5,269z M462.3,263.1h12.2
			c-0.2-1.8-0.6-3.1-1.4-4c-1.2-1.4-2.7-2.1-4.6-2.1c-1.7,0-3.1,0.6-4.3,1.7C463.1,259.8,462.4,261.3,462.3,263.1z"/>
		<path class="st2" d="M482.9,275.8v-21.3h3.3v3.2c0.9-1.5,1.6-2.5,2.4-3s1.5-0.7,2.4-0.7c1.3,0,2.5,0.4,3.8,1.2l-1.3,3.3
			c-0.9-0.5-1.8-0.8-2.7-0.8c-0.8,0-1.5,0.2-2.2,0.7s-1.1,1.1-1.4,2c-0.4,1.3-0.6,2.7-0.6,4.2v11.1L482.9,275.8L482.9,275.8z"/>
		<path class="st2" d="M495.7,275.8v-4.1h4.2v4.1c0,1.5-0.3,2.7-0.8,3.7s-1.4,1.6-2.6,2.2l-1-1.5c0.8-0.3,1.4-0.8,1.7-1.5
			c0.4-0.6,0.6-1.6,0.6-2.8h-2.1L495.7,275.8L495.7,275.8z"/>
		<path class="st2" d="M518.2,250.6v-4.1h3.7v4.1H518.2z M518.2,275.8v-21.3h3.7v21.3H518.2z"/>
		<path class="st2" d="M527.6,275.8v-21.3h3.3v3c1.6-2.3,3.9-3.5,7-3.5c1.3,0,2.5,0.2,3.6,0.7s1.9,1.1,2.5,1.8
			c0.5,0.7,0.9,1.6,1.2,2.7c0.1,0.7,0.2,1.8,0.2,3.5v13.1h-3.7v-12.9c0-1.5-0.1-2.6-0.4-3.3c-0.3-0.7-0.8-1.3-1.5-1.7
			c-0.7-0.4-1.6-0.7-2.6-0.7c-1.6,0-2.9,0.5-4.1,1.5c-1.1,1-1.7,2.8-1.7,5.5v11.6L527.6,275.8L527.6,275.8z"/>
		<path class="st2" d="M577.8,269l3.8,0.5c-0.6,2.2-1.7,3.9-3.4,5.1c-1.6,1.2-3.7,1.8-6.3,1.8c-3.2,0-5.7-1-7.6-2.9
			c-1.9-1.9-2.8-4.6-2.8-8.1c0-3.6,0.9-6.4,2.8-8.3c1.9-2,4.4-3,7.4-3c2.9,0,5.3,1,7.2,2.9c1.9,1.9,2.8,4.7,2.8,8.2c0,0.2,0,0.5,0,1
			h-16.3c0.1,2.3,0.8,4.1,2,5.4c1.2,1.2,2.8,1.9,4.6,1.9c1.4,0,2.5-0.3,3.5-1C576.4,271.6,577.2,270.5,577.8,269z M565.6,263.1h12.2
			c-0.2-1.8-0.6-3.1-1.4-4c-1.2-1.4-2.7-2.1-4.6-2.1c-1.7,0-3.1,0.6-4.3,1.7C566.3,259.8,565.7,261.3,565.6,263.1z"/>
		<path class="st2" d="M592.3,275.8l-8.3-21.3h3.9l4.7,12.7c0.5,1.4,1,2.8,1.4,4.3c0.3-1.1,0.8-2.5,1.4-4l4.9-13h3.8l-8.3,21.3
			L592.3,275.8L592.3,275.8z"/>
		<path class="st2" d="M622.4,269l3.8,0.5c-0.6,2.2-1.7,3.9-3.4,5.1c-1.6,1.2-3.7,1.8-6.3,1.8c-3.2,0-5.7-1-7.6-2.9
			c-1.9-1.9-2.8-4.6-2.8-8.1c0-3.6,0.9-6.4,2.8-8.3c1.9-2,4.4-3,7.4-3c2.9,0,5.3,1,7.2,2.9c1.9,1.9,2.8,4.7,2.8,8.2c0,0.2,0,0.5,0,1
			H610c0.1,2.3,0.8,4.1,2,5.4c1.2,1.2,2.8,1.9,4.6,1.9c1.4,0,2.5-0.3,3.5-1C621,271.6,621.8,270.5,622.4,269z M610.2,263.1h12.2
			c-0.2-1.8-0.6-3.1-1.4-4c-1.2-1.4-2.7-2.1-4.6-2.1c-1.7,0-3.1,0.6-4.3,1.7C611,259.8,610.3,261.3,610.2,263.1z"/>
		<path class="st2" d="M630.8,275.8v-21.3h3.3v3.2c0.9-1.5,1.6-2.5,2.4-3s1.5-0.7,2.4-0.7c1.3,0,2.5,0.4,3.8,1.2l-1.3,3.3
			c-0.9-0.5-1.8-0.8-2.7-0.8c-0.8,0-1.5,0.2-2.2,0.7s-1.1,1.1-1.4,2c-0.4,1.3-0.6,2.7-0.6,4.2v11.1L630.8,275.8L630.8,275.8z"/>
		<path class="st2" d="M644.8,284l-0.4-3.4c0.8,0.2,1.5,0.3,2.1,0.3c0.8,0,1.5-0.1,2-0.4s0.9-0.6,1.2-1.1c0.2-0.4,0.6-1.3,1.1-2.7
			c0.1-0.2,0.2-0.5,0.3-0.9l-8.3-21.3h4l4.6,12.3c0.6,1.6,1.1,3.2,1.6,4.9c0.4-1.7,0.9-3.3,1.5-4.8l4.7-12.4h3.7l-8.3,21.6
			c-0.9,2.3-1.6,3.9-2.1,4.8c-0.7,1.2-1.4,2.1-2.3,2.6c-0.9,0.6-1.9,0.8-3.1,0.8C646.4,284.4,645.6,284.3,644.8,284z"/>
		<path class="st2" d="M681.2,275.8h-3.4v-29.3h3.7V257c1.6-1.9,3.6-2.9,6-2.9c1.3,0,2.6,0.3,3.8,0.8s2.2,1.3,3,2.2
			c0.8,1,1.4,2.1,1.8,3.5c0.4,1.3,0.7,2.8,0.7,4.3c0,3.6-0.9,6.5-2.8,8.4c-1.9,2-4.1,3-6.7,3c-2.6,0-4.6-1-6.1-3.1V275.8z
			 M681.2,265c0,2.5,0.4,4.4,1.1,5.5c1.2,1.9,2.8,2.8,4.7,2.8c1.6,0,3-0.7,4.2-2.1s1.8-3.4,1.8-6.1c0-2.8-0.6-4.8-1.7-6.1
			c-1.1-1.3-2.5-2-4.1-2s-3,0.7-4.2,2.1C681.7,260.4,681.2,262.4,681.2,265z"/>
		<path class="st2" d="M701.1,284l-0.4-3.4c0.8,0.2,1.5,0.3,2.1,0.3c0.8,0,1.5-0.1,2-0.4s0.9-0.6,1.2-1.1c0.2-0.4,0.6-1.3,1.1-2.7
			c0.1-0.2,0.2-0.5,0.3-0.9l-8.3-21.3h4l4.6,12.3c0.6,1.6,1.1,3.2,1.6,4.9c0.4-1.7,0.9-3.3,1.5-4.8l4.7-12.4h3.7l-8.3,21.6
			c-0.9,2.3-1.6,3.9-2.1,4.8c-0.7,1.2-1.4,2.1-2.3,2.6c-0.9,0.6-1.9,0.8-3.1,0.8C702.8,284.4,702,284.3,701.1,284z"/>
		<path class="st2" d="M730.5,272.6l0.5,3.2c-1,0.2-2,0.3-2.8,0.3c-1.3,0-2.4-0.2-3.1-0.6c-0.7-0.4-1.3-1-1.6-1.6
			c-0.3-0.7-0.5-2.1-0.5-4.3v-12.2h-2.7v-2.8h2.7v-5.3l3.7-2.2v7.4h3.7v2.8h-3.7v12.4c0,1,0.1,1.7,0.2,2c0.1,0.3,0.3,0.5,0.6,0.7
			s0.7,0.3,1.3,0.3C729.3,272.7,729.8,272.7,730.5,272.6z"/>
		<path class="st2" d="M749.1,269l3.8,0.5c-0.6,2.2-1.7,3.9-3.4,5.1c-1.6,1.2-3.7,1.8-6.3,1.8c-3.2,0-5.7-1-7.6-2.9
			c-1.9-1.9-2.8-4.6-2.8-8.1c0-3.6,0.9-6.4,2.8-8.3c1.9-2,4.4-3,7.4-3c2.9,0,5.3,1,7.2,2.9c1.9,1.9,2.8,4.7,2.8,8.2c0,0.2,0,0.5,0,1
			h-16.3c0.1,2.3,0.8,4.1,2,5.4c1.2,1.2,2.8,1.9,4.6,1.9c1.4,0,2.5-0.3,3.5-1C747.8,271.6,748.5,270.5,749.1,269z M736.9,263.1h12.2
			c-0.2-1.8-0.6-3.1-1.4-4c-1.2-1.4-2.7-2.1-4.6-2.1c-1.7,0-3.1,0.6-4.3,1.7C737.7,259.8,737,261.3,736.9,263.1z"/>
	</g>
</g>
</svg>
